FrauncesItalic-LightOpMin.ufo
<glyph name="comma" format="2">
  <advance width="694"/>
  <unicode hex="002C"/>
  <outline>
    <contour>
      <point x="454.0" y="-46.0" type="curve" smooth="yes"/>
      <point x="462.0" y="-46.0"/>
      <point x="472.0" y="-56.0"/>
      <point x="472.0" y="-88.0" type="curve" smooth="yes"/>
      <point x="472.0" y="-164.0"/>
      <point x="402.0" y="-266.0"/>
      <point x="312.0" y="-326.0" type="curve" smooth="yes"/>
      <point x="294.0" y="-342.0"/>
      <point x="272.0" y="-350.0"/>
      <point x="272.0" y="-364.0" type="curve" smooth="yes"/>
      <point x="272.0" y="-376.0"/>
      <point x="284.0" y="-384.0"/>
      <point x="296.0" y="-384.0" type="curve" smooth="yes"/>
      <point x="302.0" y="-384.0"/>
      <point x="300.0" y="-382.0"/>
      <point x="312.0" y="-376.0" type="curve" smooth="yes"/>
      <point x="392.0" y="-338.0"/>
      <point x="524.0" y="-174.0"/>
      <point x="524.0" y="94.0" type="curve" smooth="yes"/>
      <point x="524.0" y="206.0"/>
      <point x="476.0" y="222.0"/>
      <point x="450.0" y="222.0" type="curve" smooth="yes"/>
      <point x="394.0" y="222.0"/>
      <point x="348.0" y="170.0"/>
      <point x="348.0" y="98.0" type="curve" smooth="yes"/>
      <point x="348.0" y="28.0"/>
      <point x="372.0" y="-12.0"/>
    </contour>
  </outline>
</glyph>
<glyph name="colon" format="2">
  <advance width="620"/>
  <unicode hex="003A"/>
  <outline>
    <contour>
      <point x="194.0" y="-20.0" type="curve" smooth="yes"/>
      <point x="234.0" y="-20.0"/>
      <point x="320.0" y="106.0"/>
      <point x="320.0" y="206.0" type="curve" smooth="yes"/>
      <point x="320.0" y="236.0"/>
      <point x="308.0" y="252.0"/>
      <point x="288.0" y="252.0" type="curve" smooth="yes"/>
      <point x="246.0" y="252.0"/>
      <point x="162.0" y="128.0"/>
      <point x="162.0" y="30.0" type="curve" smooth="yes"/>
      <point x="162.0" y="-2.0"/>
      <point x="176.0" y="-20.0"/>
    </contour>
    <contour>
      <point x="320.0" y="570.0" type="curve" smooth="yes"/>
      <point x="360.0" y="570.0"/>
      <point x="446.0" y="696.0"/>
      <point x="446.0" y="796.0" type="curve" smooth="yes"/>
      <point x="446.0" y="826.0"/>
      <point x="434.0" y="842.0"/>
      <point x="414.0" y="842.0" type="curve" smooth="yes"/>
      <point x="372.0" y="842.0"/>
      <point x="288.0" y="718.0"/>
      <point x="288.0" y="620.0" type="curve" smooth="yes"/>
      <point x="288.0" y="588.0"/>
      <point x="302.0" y="570.0"/>
    </contour>
  </outline>
</glyph>
<glyph name="A" format="2">
  <advance width="1168"/>
  <unicode hex="0041"/>
  <anchor x="1156.0" y="1532.0" name="center"/>
  <outline>
    <contour>
      <point x="136.0" y="108.0" type="curve" smooth="yes"/>
      <point x="136.0" y="124.0"/>
      <point x="144.0" y="138.0"/>
      <point x="162.0" y="166.0" type="curve" smooth="yes"/>
      <point x="720.0" y="1034.0" type="line" smooth="yes"/>
      <point x="803.8380147502081" y="1164.4146896114348"/>
      <point x="872.4748421182842" y="1252.4748421182842"/>
      <point x="902.0" y="1282.0" type="curve"/>
      <point x="886.0" y="1300.0" type="line"/>
      <point x="883.9895475410901" y="1010.4948459169842"/>
      <point x="878.0313396702247" y="389.26403336572923"/>
      <point x="872.0" y="146.0" type="curve" smooth="yes"/>
      <point x="870.0" y="100.0"/>
      <point x="844.0" y="78.0"/>
      <point x="802.0" y="68.0" type="curve" smooth="yes"/>
      <point x="724.0" y="50.0" type="line" smooth="yes"/>
      <point x="710.0" y="46.0"/>
      <point x="698.0" y="36.0"/>
      <point x="698.0" y="24.0" type="curve" smooth="yes"/>
      <point x="698.0" y="8.0"/>
      <point x="712.0" y="0.0"/>
      <point x="726.0" y="0.0" type="curve" smooth="yes"/>
      <point x="1048.0" y="0.0" type="line" smooth="yes"/>
      <point x="1074.0" y="0.0"/>
      <point x="1084.0" y="10.0"/>
      <point x="1084.0" y="26.0" type="curve" smooth="yes"/>
      <point x="1084.0" y="40.0"/>
      <point x="1074.0" y="50.0"/>
      <point x="1054.0" y="52.0" type="curve" smooth="yes"/>
      <point x="988.998231954374" y="61.750265206843906"/>
      <point x="946.0" y="82.15384615384615"/>
      <point x="946.0" y="136.0" type="curve" smooth="yes"/>
      <point x="944.0105072066735" y="384.6865991658012"/>
      <point x="952.0105073510027" y="991.4815364913902"/>
      <point x="954.0" y="1272.0" type="curve" smooth="yes"/>
      <point x="954.0" y="1322.0"/>
      <point x="978.0" y="1350.0"/>
      <point x="1022.0" y="1354.0" type="curve" smooth="yes"/>
      <point x="1044.0" y="1356.0"/>
      <point x="1058.0" y="1370.0"/>
      <point x="1058.0" y="1386.0" type="curve" smooth="yes"/>
      <point x="1058.0" y="1402.0"/>
      <point x="1046.0" y="1410.0"/>
      <point x="1024.0" y="1410.0" type="curve" smooth="yes"/>
      <point x="932.0" y="1410.0"/>
      <point x="830.0" y="1300.0"/>
      <point x="682.0" y="1072.0" type="curve" smooth="yes"/>
      <point x="84.0" y="154.0" type="line" smooth="yes"/>
      <point x="48.17735489231555" y="99.00804647348775"/>
      <point x="1.2567126572034937" y="77.38223098232447"/>
      <point x="-48.0" y="68.0" type="curve" smooth="yes"/>
      <point x="-80.0" y="62.0"/>
      <point x="-98.0" y="52.0"/>
      <point x="-98.0" y="32.0" type="curve" smooth="yes"/>
      <point x="-98.0" y="10.0"/>
      <point x="-82.0" y="0.0"/>
      <point x="-48.0" y="0.0" type="curve" smooth="yes"/>
      <point x="236.0" y="0.0" type="line" smooth="yes"/>
      <point x="262.0" y="0.0"/>
      <point x="276.0" y="10.0"/>
      <point x="276.0" y="28.0" type="curve" smooth="yes"/>
      <point x="276.0" y="44.0"/>
      <point x="266.0" y="58.0"/>
      <point x="242.0" y="60.0" type="curve" smooth="yes"/>
      <point x="156.75697576303847" y="66.43343579146878"/>
      <point x="136.0" y="86.0"/>
    </contour>
    <contour>
      <point x="324.0" y="498.0" type="line"/>
      <point x="914.0" y="498.0" type="line"/>
      <point x="918.0" y="548.0" type="line"/>
      <point x="356.0" y="548.0" type="line"/>
    </contour>
  </outline>
</glyph>
<glyph name="D" format="2">
  <advance width="1530"/>
  <unicode hex="0044"/>
  <outline>
    <contour>
      <point x="818.0" y="72.0" type="curve" smooth="yes"/>
      <point x="600.0" y="72.0" type="line" smooth="yes"/>
      <point x="540.0" y="72.0"/>
      <point x="528.0" y="94.0"/>
      <point x="528.0" y="156.0" type="curve" smooth="yes"/>
      <point x="528.0" y="154.0"/>
      <point x="530.0" y="156.0"/>
      <point x="532.0" y="172.0" type="curve" smooth="yes"/>
      <point x="616.0" y="640.0"/>
      <point x="690.0" y="886.0"/>
      <point x="816.0" y="1258.0" type="curve" smooth="yes"/>
      <point x="826.0" y="1296.0"/>
      <point x="844.0" y="1328.0"/>
      <point x="910.0" y="1328.0" type="curve" smooth="yes"/>
      <point x="1048.0" y="1328.0" type="line" smooth="yes"/>
      <point x="1304.0" y="1328.0"/>
      <point x="1492.0" y="1126.0"/>
      <point x="1492.0" y="842.0" type="curve" smooth="yes"/>
      <point x="1492.0" y="510.0"/>
      <point x="1138.0" y="72.0"/>
    </contour>
    <contour>
      <point x="154.0" y="26.0" type="curve" smooth="yes"/>
      <point x="142.0" y="8.0"/>
      <point x="154.0" y="0.0"/>
      <point x="206.0" y="0.0" type="curve" smooth="yes"/>
      <point x="756.0" y="0.0" type="line" smooth="yes"/>
      <point x="1232.0" y="0.0"/>
      <point x="1622.0" y="384.0"/>
      <point x="1622.0" y="838.0" type="curve" smooth="yes"/>
      <point x="1622.0" y="1180.0"/>
      <point x="1376.0" y="1400.0"/>
      <point x="1010.0" y="1400.0" type="curve" smooth="yes"/>
      <point x="612.0" y="1400.0" type="line" smooth="yes"/>
      <point x="566.0" y="1400.0"/>
      <point x="550.0" y="1404.0"/>
      <point x="538.0" y="1386.0" type="curve" smooth="yes"/>
      <point x="522.0" y="1360.0"/>
      <point x="540.0" y="1352.0"/>
      <point x="586.0" y="1346.0" type="curve" smooth="yes"/>
      <point x="616.0" y="1336.0" type="line" smooth="yes"/>
      <point x="668.0" y="1324.0"/>
      <point x="684.0" y="1288.0"/>
      <point x="660.0" y="1224.0" type="curve" smooth="yes"/>
      <point x="562.0" y="844.0"/>
      <point x="512.0" y="582.0"/>
      <point x="358.0" y="124.0" type="curve" smooth="yes"/>
      <point x="352.0" y="108.0"/>
      <point x="322.0" y="76.0"/>
      <point x="272.0" y="66.0" type="curve" smooth="yes"/>
      <point x="236.0" y="56.0" type="line" smooth="yes"/>
      <point x="194.0" y="46.0"/>
      <point x="170.0" y="54.0"/>
    </contour>
  </outline>
</glyph>
<glyph name="H" format="2">
  <advance width="1466"/>
  <unicode hex="0048"/>
  <outline>
    <contour>
      <point x="404.0" y="674.0" type="line"/>
      <point x="388.0" y="618.0" type="line"/>
      <point x="1166.0" y="618.0" type="line"/>
      <point x="1184.0" y="674.0" type="line"/>
    </contour>
    <contour>
      <point x="302.0" y="160.0" type="curve" smooth="yes"/>
      <point x="316.0" y="236.0"/>
      <point x="548.0" y="1096.0"/>
      <point x="600.0" y="1262.0" type="curve" smooth="yes"/>
      <point x="612.0" y="1304.0"/>
      <point x="640.0" y="1326.0"/>
      <point x="694.0" y="1336.0" type="curve" smooth="yes"/>
      <point x="756.0" y="1348.0" type="line" smooth="yes"/>
      <point x="794.0" y="1356.0"/>
      <point x="806.0" y="1364.0"/>
      <point x="806.0" y="1382.0" type="curve" smooth="yes"/>
      <point x="806.0" y="1396.0"/>
      <point x="798.0" y="1400.0"/>
      <point x="772.0" y="1400.0" type="curve" smooth="yes"/>
      <point x="438.0" y="1400.0" type="line" smooth="yes"/>
      <point x="396.0" y="1400.0"/>
      <point x="374.0" y="1396.0"/>
      <point x="374.0" y="1380.0" type="curve" smooth="yes"/>
      <point x="374.0" y="1360.0"/>
      <point x="384.0" y="1352.0"/>
      <point x="416.0" y="1346.0" type="curve" smooth="yes"/>
      <point x="468.0" y="1336.0" type="line" smooth="yes"/>
      <point x="518.0" y="1326.0"/>
      <point x="524.0" y="1298.0"/>
      <point x="512.0" y="1240.0" type="curve" smooth="yes"/>
      <point x="484.0" y="1098.0"/>
      <point x="250.0" y="248.0"/>
      <point x="220.0" y="160.0" type="curve" smooth="yes"/>
      <point x="202.0" y="106.0"/>
      <point x="168.0" y="68.0"/>
      <point x="112.0" y="60.0" type="curve" smooth="yes"/>
      <point x="54.0" y="52.0" type="line" smooth="yes"/>
      <point x="22.0" y="48.0"/>
      <point x="10.0" y="36.0"/>
      <point x="12.0" y="22.0" type="curve" smooth="yes"/>
      <point x="12.0" y="6.0"/>
      <point x="20.0" y="0.0"/>
      <point x="48.0" y="0.0" type="curve" smooth="yes"/>
      <point x="390.0" y="0.0" type="line" smooth="yes"/>
      <point x="412.0" y="0.0"/>
      <point x="434.0" y="6.0"/>
      <point x="434.0" y="20.0" type="curve" smooth="yes"/>
      <point x="434.0" y="38.0"/>
      <point x="424.0" y="48.0"/>
      <point x="394.0" y="54.0" type="curve" smooth="yes"/>
      <point x="348.0" y="62.0" type="line" smooth="yes"/>
      <point x="298.0" y="70.0"/>
      <point x="290.0" y="98.0"/>
    </contour>
    <contour>
      <point x="1086.0" y="160.0" type="curve" smooth="yes"/>
      <point x="1100.0" y="236.0"/>
      <point x="1332.0" y="1096.0"/>
      <point x="1384.0" y="1262.0" type="curve" smooth="yes"/>
      <point x="1396.0" y="1304.0"/>
      <point x="1424.0" y="1326.0"/>
      <point x="1478.0" y="1336.0" type="curve" smooth="yes"/>
      <point x="1540.0" y="1348.0" type="line" smooth="yes"/>
      <point x="1578.0" y="1356.0"/>
      <point x="1590.0" y="1364.0"/>
      <point x="1590.0" y="1382.0" type="curve" smooth="yes"/>
      <point x="1590.0" y="1396.0"/>
      <point x="1582.0" y="1400.0"/>
      <point x="1556.0" y="1400.0" type="curve" smooth="yes"/>
      <point x="1222.0" y="1400.0" type="line" smooth="yes"/>
      <point x="1180.0" y="1400.0"/>
      <point x="1158.0" y="1396.0"/>
      <point x="1158.0" y="1380.0" type="curve" smooth="yes"/>
      <point x="1158.0" y="1360.0"/>
      <point x="1168.0" y="1352.0"/>
      <point x="1200.0" y="1346.0" type="curve" smooth="yes"/>
      <point x="1252.0" y="1336.0" type="line" smooth="yes"/>
      <point x="1302.0" y="1326.0"/>
      <point x="1308.0" y="1298.0"/>
      <point x="1296.0" y="1240.0" type="curve" smooth="yes"/>
      <point x="1268.0" y="1098.0"/>
      <point x="1034.0" y="248.0"/>
      <point x="1004.0" y="160.0" type="curve" smooth="yes"/>
      <point x="986.0" y="106.0"/>
      <point x="952.0" y="68.0"/>
      <point x="896.0" y="60.0" type="curve" smooth="yes"/>
      <point x="838.0" y="52.0" type="line" smooth="yes"/>
      <point x="806.0" y="48.0"/>
      <point x="794.0" y="36.0"/>
      <point x="796.0" y="22.0" type="curve" smooth="yes"/>
      <point x="796.0" y="6.0"/>
      <point x="804.0" y="0.0"/>
      <point x="832.0" y="0.0" type="curve" smooth="yes"/>
      <point x="1174.0" y="0.0" type="line" smooth="yes"/>
      <point x="1196.0" y="0.0"/>
      <point x="1218.0" y="6.0"/>
      <point x="1218.0" y="20.0" type="curve" smooth="yes"/>
      <point x="1218.0" y="38.0"/>
      <point x="1208.0" y="48.0"/>
      <point x="1178.0" y="54.0" type="curve" smooth="yes"/>
      <point x="1132.0" y="62.0" type="line" smooth="yes"/>
      <point x="1082.0" y="70.0"/>
      <point x="1074.0" y="98.0"/>
    </contour>
  </outline>
</glyph>
<glyph name="U" format="2">
  <advance width="1376"/>
  <unicode hex="0055"/>
  <anchor x="930.0" y="1476.0" name="center"/>
  <outline>
    <contour>
      <point x="1020.0" y="394.0" type="line" smooth="yes"/>
      <point x="948.0" y="146.0"/>
      <point x="796.0276497695852" y="32.0"/>
      <point x="584.0" y="32.0" type="curve" smooth="yes"/>
      <point x="408.0" y="32.0"/>
      <point x="304.0" y="129.5"/>
      <point x="304.0" y="318.0" type="curve" smooth="yes"/>
      <point x="304.0" y="392.7482993197279"/>
      <point x="321.55603648488045" y="488.15276550798876"/>
      <point x="350.0" y="586.0" type="curve" smooth="yes"/>
      <point x="550.0" y="1274.0" type="line" smooth="yes"/>
      <point x="560.0" y="1310.0"/>
      <point x="586.0" y="1324.0"/>
      <point x="624.0" y="1332.0" type="curve" smooth="yes"/>
      <point x="692.0" y="1346.0" type="line" smooth="yes"/>
      <point x="736.0" y="1356.0"/>
      <point x="750.0" y="1364.0"/>
      <point x="750.0" y="1380.0" type="curve" smooth="yes"/>
      <point x="750.0" y="1392.0"/>
      <point x="740.0" y="1400.0"/>
      <point x="716.0" y="1400.0" type="curve" smooth="yes"/>
      <point x="392.0" y="1400.0" type="line" smooth="yes"/>
      <point x="354.0" y="1400.0"/>
      <point x="336.0" y="1390.0"/>
      <point x="336.0" y="1376.0" type="curve" smooth="yes"/>
      <point x="336.0" y="1358.0"/>
      <point x="346.0" y="1348.0"/>
      <point x="380.0" y="1342.0" type="curve" smooth="yes"/>
      <point x="434.0" y="1332.0" type="line" smooth="yes"/>
      <point x="476.0" y="1324.0"/>
      <point x="484.0" y="1298.0"/>
      <point x="474.0" y="1266.0" type="curve" smooth="yes"/>
      <point x="274.0" y="586.0" type="line" smooth="yes"/>
      <point x="245.15107258326162" y="487.9136467830895"/>
      <point x="224.0" y="386.7682119205298"/>
      <point x="224.0" y="310.0" type="curve" smooth="yes"/>
      <point x="224.0" y="115.09554140127389"/>
      <point x="326.0" y="-30.0"/>
      <point x="550.0" y="-30.0" type="curve" smooth="yes"/>
      <point x="830.0" y="-30.0"/>
      <point x="998.0" y="114.0"/>
      <point x="1076.0" y="380.0" type="curve" smooth="yes"/>
      <point x="1334.0" y="1258.0" type="line" smooth="yes"/>
      <point x="1348.0" y="1306.0"/>
      <point x="1378.0" y="1316.0"/>
      <point x="1424.0" y="1326.0" type="curve" smooth="yes"/>
      <point x="1492.0" y="1342.0" type="line" smooth="yes"/>
      <point x="1536.0" y="1352.0"/>
      <point x="1540.0" y="1360.0"/>
      <point x="1540.0" y="1378.0" type="curve" smooth="yes"/>
      <point x="1540.0" y="1390.0"/>
      <point x="1526.0" y="1400.0"/>
      <point x="1504.0" y="1400.0" type="curve" smooth="yes"/>
      <point x="1182.0" y="1400.0" type="line" smooth="yes"/>
      <point x="1152.0" y="1400.0"/>
      <point x="1136.0" y="1390.0"/>
      <point x="1136.0" y="1372.0" type="curve" smooth="yes"/>
      <point x="1136.0" y="1356.0"/>
      <point x="1154.0" y="1350.0"/>
      <point x="1184.0" y="1340.0" type="curve" smooth="yes"/>
      <point x="1230.0" y="1326.0" type="line" smooth="yes"/>
      <point x="1274.0" y="1312.0"/>
      <point x="1282.0" y="1294.0"/>
      <point x="1270.0" y="1256.0" type="curve" smooth="yes"/>
    </contour>
  </outline>
</glyph>
<glyph name="a" format="2">
  <advance width="942"/>
  <unicode hex="0061"/>
  <anchor x="708.0" y="986.0" name="center"/>
  <outline>
    <contour>
      <point x="646.0" y="138.0" type="curve" smooth="yes"/>
      <point x="646.0" y="212.0"/>
      <point x="740.0" y="544.0"/>
      <point x="788.0" y="748.0" type="curve" smooth="yes"/>
      <point x="796.0" y="780.0"/>
      <point x="828.0" y="822.0"/>
      <point x="828.0" y="838.0" type="curve" smooth="yes"/>
      <point x="828.0" y="886.0"/>
      <point x="778.0" y="914.0"/>
      <point x="704.0" y="914.0" type="curve" smooth="yes"/>
      <point x="402.0" y="914.0"/>
      <point x="78.0" y="556.0"/>
      <point x="78.0" y="154.0" type="curve" smooth="yes"/>
      <point x="78.0" y="34.0"/>
      <point x="144.0" y="-16.0"/>
      <point x="222.0" y="-16.0" type="curve" smooth="yes"/>
      <point x="376.0" y="-16.0"/>
      <point x="564.0" y="162.0"/>
      <point x="658.0" y="420.0" type="curve"/>
      <point x="636.0" y="412.0" type="line"/>
      <point x="616.0" y="276.0"/>
      <point x="562.0" y="140.0"/>
      <point x="562.0" y="56.0" type="curve" smooth="yes"/>
      <point x="562.0" y="10.0"/>
      <point x="590.0" y="-18.0"/>
      <point x="648.0" y="-18.0" type="curve" smooth="yes"/>
      <point x="764.0" y="-18.0"/>
      <point x="856.0" y="78.0"/>
      <point x="856.0" y="136.0" type="curve" smooth="yes"/>
      <point x="856.0" y="148.0"/>
      <point x="848.0" y="154.0"/>
      <point x="838.0" y="154.0" type="curve" smooth="yes"/>
      <point x="824.0" y="154.0"/>
      <point x="814.0" y="148.0"/>
      <point x="800.0" y="128.0" type="curve" smooth="yes"/>
      <point x="764.0" y="86.0"/>
      <point x="730.0" y="66.0"/>
      <point x="706.0" y="66.0" type="curve" smooth="yes"/>
      <point x="664.0" y="66.0"/>
      <point x="646.0" y="94.0"/>
    </contour>
    <contour>
      <point x="154.0" y="224.0" type="curve" smooth="yes"/>
      <point x="154.0" y="516.0"/>
      <point x="436.0" y="856.0"/>
      <point x="642.0" y="856.0" type="curve" smooth="yes"/>
      <point x="698.0" y="856.0"/>
      <point x="726.0" y="830.0"/>
      <point x="726.0" y="766.0" type="curve" smooth="yes"/>
      <point x="726.0" y="524.0"/>
      <point x="448.0" y="54.0"/>
      <point x="270.0" y="54.0" type="curve" smooth="yes"/>
      <point x="214.0" y="54.0"/>
      <point x="154.0" y="80.0"/>
    </contour>
  </outline>
</glyph>
<glyph name="b" format="2">
  <advance width="950"/>
  <unicode hex="0062"/>
  <outline>
    <contour>
      <point x="422.0" y="1008.0" type="line" smooth="yes"/>
      <point x="484.0" y="1230.0"/>
      <point x="626.4484848484849" y="1346.0"/>
      <point x="756.0" y="1346.0" type="curve" smooth="yes"/>
      <point x="834.0" y="1346.0"/>
      <point x="890.0" y="1310.0"/>
      <point x="936.0" y="1310.0" type="curve" smooth="yes"/>
      <point x="980.0" y="1310.0"/>
      <point x="1004.0" y="1328.0"/>
      <point x="1004.0" y="1354.0" type="curve" smooth="yes"/>
      <point x="1004.0" y="1390.0"/>
      <point x="972.0" y="1418.0"/>
      <point x="908.0" y="1418.0" type="curve" smooth="yes"/>
      <point x="621.0359712230215" y="1418.0"/>
      <point x="429.53787372364053" y="1272.130620469411"/>
      <point x="354.0" y="1004.0" type="curve" smooth="yes"/>
      <point x="92.0" y="74.0" type="line" smooth="yes"/>
      <point x="82.0" y="40.0"/>
      <point x="80.0" y="26.0"/>
      <point x="80.0" y="12.0" type="curve" smooth="yes"/>
      <point x="80.0" y="-4.0"/>
      <point x="90.0" y="-16.0"/>
      <point x="104.0" y="-16.0" type="curve" smooth="yes"/>
      <point x="114.0" y="-16.0"/>
      <point x="130.0" y="-4.0"/>
      <point x="136.0" y="10.0" type="curve" smooth="yes"/>
      <point x="194.0" y="168.0" type="line"/>
      <point x="176.0" y="182.0" type="line"/>
      <point x="176.0" y="50.0"/>
      <point x="220.0" y="-20.0"/>
      <point x="334.0" y="-20.0" type="curve" smooth="yes"/>
      <point x="556.0" y="-20.0"/>
      <point x="878.0" y="296.0"/>
      <point x="878.0" y="732.0" type="curve" smooth="yes"/>
      <point x="878.0" y="844.0"/>
      <point x="822.0" y="912.0"/>
      <point x="716.0" y="912.0" type="curve" smooth="yes"/>
      <point x="540.0" y="912.0"/>
      <point x="328.0" y="684.0"/>
      <point x="238.0" y="446.0" type="curve"/>
      <point x="264.0" y="446.0" type="line"/>
    </contour>
    <contour>
      <point x="688.0" y="856.0" type="curve" smooth="yes"/>
      <point x="758.0" y="856.0"/>
      <point x="804.0" y="800.0"/>
      <point x="804.0" y="698.0" type="curve" smooth="yes"/>
      <point x="804.0" y="326.0"/>
      <point x="528.0" y="36.0"/>
      <point x="344.0" y="36.0" type="curve" smooth="yes"/>
      <point x="262.0" y="36.0"/>
      <point x="216.0" y="80.0"/>
      <point x="216.0" y="184.0" type="curve" smooth="yes"/>
      <point x="216.0" y="476.0"/>
      <point x="496.0" y="856.0"/>
    </contour>
  </outline>
</glyph>
<glyph name="c" format="2">
  <advance width="802"/>
  <unicode hex="0063"/>
  <anchor x="730.0" y="1102.0" name="center"/>
  <outline>
    <contour>
      <point x="694.0" y="894.0" type="curve" smooth="yes"/>
      <point x="750.0" y="894.0"/>
      <point x="782.0" y="878.0"/>
      <point x="782.0" y="864.0" type="curve" smooth="yes"/>
      <point x="782.0" y="822.0"/>
      <point x="760.0" y="772.0"/>
      <point x="760.0" y="738.0" type="curve" smooth="yes"/>
      <point x="760.0" y="706.0"/>
      <point x="790.0" y="684.0"/>
      <point x="836.0" y="684.0" type="curve" smooth="yes"/>
      <point x="866.0" y="684.0"/>
      <point x="892.0" y="726.0"/>
      <point x="892.0" y="798.0" type="curve" smooth="yes"/>
      <point x="892.0" y="882.0"/>
      <point x="830.0" y="972.0"/>
      <point x="710.0" y="972.0" type="curve" smooth="yes"/>
      <point x="446.0" y="972.0"/>
      <point x="204.0" y="588.0"/>
      <point x="204.0" y="284.0" type="curve" smooth="yes"/>
      <point x="204.0" y="96.0"/>
      <point x="288.0" y="-34.0"/>
      <point x="450.0" y="-34.0" type="curve" smooth="yes"/>
      <point x="620.0" y="-34.0"/>
      <point x="802.0" y="128.0"/>
      <point x="802.0" y="210.0" type="curve" smooth="yes"/>
      <point x="802.0" y="222.0"/>
      <point x="784.0" y="232.0"/>
      <point x="784.0" y="232.0" type="curve" smooth="yes"/>
      <point x="754.0" y="232.0"/>
      <point x="738.0" y="206.0"/>
      <point x="718.0" y="178.0" type="curve" smooth="yes"/>
      <point x="670.0" y="124.0"/>
      <point x="602.0" y="70.0"/>
      <point x="494.0" y="70.0" type="curve" smooth="yes"/>
      <point x="384.0" y="70.0"/>
      <point x="302.0" y="172.0"/>
      <point x="302.0" y="342.0" type="curve" smooth="yes"/>
      <point x="302.0" y="632.0"/>
      <point x="494.0" y="894.0"/>
    </contour>
  </outline>
</glyph>
<glyph name="d" format="2">
  <advance width="962"/>
  <unicode hex="0064"/>
  <outline>
    <contour>
      <point x="994.0" y="816.0" type="line"/>
      <point x="994.0" y="910.0"/>
      <point x="948.0" y="972.0"/>
      <point x="820.0" y="972.0" type="curve" smooth="yes"/>
      <point x="526.0" y="972.0"/>
      <point x="158.0" y="618.0"/>
      <point x="158.0" y="190.0" type="curve" smooth="yes"/>
      <point x="158.0" y="26.0"/>
      <point x="206.0" y="-34.0"/>
      <point x="318.0" y="-34.0" type="curve" smooth="yes"/>
      <point x="466.0" y="-34.0"/>
      <point x="650.0" y="126.0"/>
      <point x="802.0" y="436.0" type="curve"/>
      <point x="776.0" y="438.0" type="line"/>
      <point x="782.0" y="328.0"/>
      <point x="720.0" y="182.0"/>
      <point x="720.0" y="52.0" type="curve" smooth="yes"/>
      <point x="720.0" y="2.0"/>
      <point x="744.0" y="-34.0"/>
      <point x="808.0" y="-34.0" type="curve" smooth="yes"/>
      <point x="884.0" y="-34.0"/>
      <point x="1012.0" y="68.0"/>
      <point x="1012.0" y="130.0" type="curve" smooth="yes"/>
      <point x="1012.0" y="134.0"/>
      <point x="1004.0" y="150.0"/>
      <point x="984.0" y="150.0" type="curve" smooth="yes"/>
      <point x="960.0" y="150.0"/>
      <point x="950.0" y="126.0"/>
      <point x="934.0" y="106.0" type="curve" smooth="yes"/>
      <point x="922.0" y="108.0"/>
      <point x="898.0" y="80.0"/>
      <point x="868.0" y="80.0" type="curve" smooth="yes"/>
      <point x="838.0" y="80.0"/>
      <point x="814.0" y="108.0"/>
      <point x="814.0" y="130.0" type="curve" smooth="yes"/>
      <point x="814.0" y="178.0"/>
      <point x="816.0" y="206.0"/>
      <point x="820.0" y="216.0" type="curve" smooth="yes"/>
      <point x="1096.0" y="1166.0" type="line" smooth="yes"/>
      <point x="1110.0" y="1216.0"/>
      <point x="1102.0" y="1284.0"/>
      <point x="1100.0" y="1292.0" type="curve" smooth="yes"/>
      <point x="1100.0" y="1330.0"/>
      <point x="1122.0" y="1358.0"/>
      <point x="1162.0" y="1358.0" type="curve" smooth="yes"/>
      <point x="1192.0" y="1358.0"/>
      <point x="1242.0" y="1276.0"/>
      <point x="1302.0" y="1276.0" type="curve" smooth="yes"/>
      <point x="1342.0" y="1276.0"/>
      <point x="1382.0" y="1310.0"/>
      <point x="1382.0" y="1348.0" type="curve" smooth="yes"/>
      <point x="1382.0" y="1400.0"/>
      <point x="1334.0" y="1416.0"/>
      <point x="1242.0" y="1416.0" type="curve" smooth="yes"/>
      <point x="1122.0" y="1416.0"/>
      <point x="1068.0" y="1334.0"/>
      <point x="1020.0" y="1200.0" type="curve" smooth="yes"/>
      <point x="864.0" y="754.0" type="line" smooth="yes"/>
      <point x="740.0" y="396.0"/>
      <point x="548.0" y="80.0"/>
      <point x="416.0" y="80.0" type="curve" smooth="yes"/>
      <point x="304.0" y="80.0"/>
      <point x="280.0" y="164.0"/>
      <point x="280.0" y="354.0" type="curve" smooth="yes"/>
      <point x="280.0" y="592.0"/>
      <point x="536.0" y="868.0"/>
      <point x="726.0" y="868.0" type="curve" smooth="yes"/>
      <point x="846.0" y="868.0"/>
      <point x="864.0" y="810.0"/>
      <point x="856.0" y="772.0" type="curve"/>
    </contour>
  </outline>
</glyph>
<glyph name="g" format="2">
  <advance width="902"/>
  <unicode hex="0067"/>
  <outline>
    <contour>
      <point x="658.0" y="-10.0" type="curve" smooth="yes"/>
      <point x="710.944682685806" y="239.8989022770046"/>
      <point x="795.2042000434228" y="598.2693718503928"/>
      <point x="810.0" y="742.0" type="curve" smooth="yes"/>
      <point x="814.0" y="784.0"/>
      <point x="846.0" y="812.0"/>
      <point x="846.0" y="834.0" type="curve" smooth="yes"/>
      <point x="846.0" y="888.0"/>
      <point x="796.0" y="916.0"/>
      <point x="706.0" y="916.0" type="curve" smooth="yes"/>
      <point x="414.0" y="916.0"/>
      <point x="96.0" y="526.0"/>
      <point x="96.0" y="164.0" type="curve" smooth="yes"/>
      <point x="96.0" y="46.0"/>
      <point x="146.0" y="-16.0"/>
      <point x="232.0" y="-16.0" type="curve" smooth="yes"/>
      <point x="410.0" y="-16.0"/>
      <point x="656.0" y="198.0"/>
      <point x="740.0" y="530.0" type="curve"/>
      <point x="704.0" y="510.0" type="line"/>
      <point x="704.0" y="410.5806451612903"/>
      <point x="642.9223335976967" y="221.34986310818726"/>
      <point x="580.0" y="-26.0" type="curve" smooth="yes"/>
      <point x="508.0" y="-318.0"/>
      <point x="344.0" y="-414.0"/>
      <point x="212.0" y="-414.0" type="curve" smooth="yes"/>
      <point x="128.0" y="-414.0"/>
      <point x="54.0" y="-384.0"/>
      <point x="10.0" y="-384.0" type="curve" smooth="yes"/>
      <point x="-26.0" y="-384.0"/>
      <point x="-54.0" y="-398.0"/>
      <point x="-54.0" y="-430.0" type="curve" smooth="yes"/>
      <point x="-54.0" y="-472.0"/>
      <point x="-16.0" y="-502.0"/>
      <point x="76.0" y="-502.0" type="curve" smooth="yes"/>
      <point x="308.0" y="-502.0"/>
      <point x="580.0" y="-358.0"/>
    </contour>
    <contour>
      <point x="168.0" y="208.0" type="curve" smooth="yes"/>
      <point x="168.0" y="530.0"/>
      <point x="460.0" y="860.0"/>
      <point x="654.0" y="860.0" type="curve" smooth="yes"/>
      <point x="712.0" y="860.0"/>
      <point x="746.0" y="812.0"/>
      <point x="746.0" y="748.0" type="curve" smooth="yes"/>
      <point x="746.0" y="492.0"/>
      <point x="504.0" y="54.0"/>
      <point x="290.0" y="54.0" type="curve" smooth="yes"/>
      <point x="214.0" y="54.0"/>
      <point x="168.0" y="100.0"/>
    </contour>
  </outline>
</glyph>
<glyph name="h" format="2">
  <advance width="996"/>
  <unicode hex="0068"/>
  <outline>
    <contour>
      <point x="250.0" y="366.0" type="curve" smooth="yes"/>
      <point x="206.0" y="244.0"/>
      <point x="178.0" y="172.0"/>
      <point x="178.0" y="122.0" type="curve" smooth="yes"/>
      <point x="178.0" y="80.0"/>
      <point x="190.0" y="66.0"/>
      <point x="190.0" y="38.0" type="curve" smooth="yes"/>
      <point x="190.0" y="2.0"/>
      <point x="154.0" y="-20.0"/>
      <point x="118.0" y="-20.0" type="curve" smooth="yes"/>
      <point x="92.0" y="-20.0"/>
      <point x="76.0" y="-10.0"/>
      <point x="76.0" y="18.0" type="curve" smooth="yes"/>
      <point x="76.0" y="40.0"/>
      <point x="84.0" y="66.0"/>
      <point x="106.0" y="148.0" type="curve" smooth="yes"/>
      <point x="332.0" y="964.0" type="line" smooth="yes"/>
      <point x="426.0" y="1300.0"/>
      <point x="640.0" y="1422.0"/>
      <point x="904.0" y="1422.0" type="curve" smooth="yes"/>
      <point x="976.0" y="1422.0"/>
      <point x="1004.0" y="1392.0"/>
      <point x="1004.0" y="1364.0" type="curve" smooth="yes"/>
      <point x="1004.0" y="1330.0"/>
      <point x="982.0" y="1314.0"/>
      <point x="938.0" y="1314.0" type="curve" smooth="yes"/>
      <point x="894.0" y="1314.0"/>
      <point x="834.0" y="1348.0"/>
      <point x="760.0" y="1348.0" type="curve" smooth="yes"/>
      <point x="606.0" y="1348.0"/>
      <point x="470.0" y="1226.0"/>
      <point x="406.0" y="974.0" type="curve" smooth="yes"/>
      <point x="347.3652727961164" y="752.9921820776696"/>
      <point x="283.5737432707983" y="555.2739035772507"/>
      <point x="252.0" y="438.0" type="curve"/>
      <point x="232.0" y="440.0" type="line"/>
      <point x="366.0" y="744.0"/>
      <point x="578.0" y="914.0"/>
      <point x="748.0" y="914.0" type="curve" smooth="yes"/>
      <point x="818.0" y="914.0"/>
      <point x="854.0" y="876.0"/>
      <point x="854.0" y="820.0" type="curve" smooth="yes"/>
      <point x="854.0" y="760.0"/>
      <point x="840.0" y="714.0"/>
      <point x="810.0" y="620.0" type="curve" smooth="yes"/>
      <point x="668.0" y="222.0" type="line" smooth="yes"/>
      <point x="658.0" y="188.0"/>
      <point x="650.0" y="150.0"/>
      <point x="650.0" y="124.0" type="curve" smooth="yes"/>
      <point x="650.0" y="84.0"/>
      <point x="674.0" y="64.0"/>
      <point x="706.0" y="64.0" type="curve" smooth="yes"/>
      <point x="740.0" y="64.0"/>
      <point x="766.0" y="78.0"/>
      <point x="806.0" y="112.0" type="curve" smooth="yes"/>
      <point x="826.0" y="136.0"/>
      <point x="838.0" y="150.0"/>
      <point x="854.0" y="150.0" type="curve" smooth="yes"/>
      <point x="864.0" y="150.0"/>
      <point x="872.0" y="142.0"/>
      <point x="872.0" y="134.0" type="curve" smooth="yes"/>
      <point x="872.0" y="76.0"/>
      <point x="772.0" y="-20.0"/>
      <point x="650.0" y="-20.0" type="curve" smooth="yes"/>
      <point x="594.0" y="-20.0"/>
      <point x="564.0" y="16.0"/>
      <point x="564.0" y="74.0" type="curve" smooth="yes"/>
      <point x="564.0" y="102.0"/>
      <point x="572.0" y="134.0"/>
      <point x="596.0" y="198.0" type="curve" smooth="yes"/>
      <point x="756.0" y="642.0" type="line" smooth="yes"/>
      <point x="772.0" y="680.0"/>
      <point x="778.0" y="718.0"/>
      <point x="778.0" y="754.0" type="curve" smooth="yes"/>
      <point x="778.0" y="812.0"/>
      <point x="758.0" y="850.0"/>
      <point x="692.0" y="850.0" type="curve" smooth="yes"/>
      <point x="598.0" y="850.0"/>
      <point x="382.0" y="722.0"/>
    </contour>
  </outline>
</glyph>
<glyph name="j" format="2">
  <advance width="618"/>
  <unicode hex="006A"/>
  <outline>
    <contour>
      <point x="588.0" y="670.0" type="curve" smooth="yes"/>
      <point x="422.0" y="-102.0" type="line" smooth="yes"/>
      <point x="374.0" y="-344.0"/>
      <point x="224.0" y="-476.0"/>
      <point x="66.0" y="-476.0" type="curve" smooth="yes"/>
      <point x="28.0" y="-476.0"/>
      <point x="6.0" y="-436.0"/>
      <point x="6.0" y="-396.0" type="curve" smooth="yes"/>
      <point x="6.0" y="-324.0"/>
      <point x="48.0" y="-258.0"/>
      <point x="120.0" y="-258.0" type="curve" smooth="yes"/>
      <point x="162.0" y="-258.0"/>
      <point x="192.0" y="-354.0"/>
      <point x="230.0" y="-354.0" type="curve" smooth="yes"/>
      <point x="232.0" y="-354.0"/>
      <point x="238.0" y="-340.0"/>
      <point x="238.0" y="-312.0" type="curve" smooth="yes"/>
      <point x="238.0" y="-282.0"/>
      <point x="298.0" y="-172.0"/>
      <point x="288.0" y="-192.0" type="curve" smooth="yes"/>
      <point x="506.0" y="714.0" type="line" smooth="yes"/>
      <point x="510.0" y="750.0"/>
      <point x="520.0" y="774.0"/>
      <point x="516.0" y="804.0" type="curve" smooth="yes"/>
      <point x="516.0" y="820.0"/>
      <point x="504.0" y="826.0"/>
      <point x="476.0" y="826.0" type="curve" smooth="yes"/>
      <point x="444.0" y="826.0"/>
      <point x="432.0" y="812.0"/>
      <point x="402.0" y="794.0" type="curve" smooth="yes"/>
      <point x="370.0" y="758.0"/>
      <point x="350.0" y="730.0"/>
      <point x="328.0" y="730.0" type="curve" smooth="yes"/>
      <point x="304.0" y="730.0"/>
      <point x="282.0" y="740.0"/>
      <point x="280.0" y="766.0" type="curve" smooth="yes"/>
      <point x="278.0" y="810.0"/>
      <point x="472.0" y="972.0"/>
      <point x="574.0" y="972.0" type="curve" smooth="yes"/>
      <point x="632.0" y="972.0"/>
      <point x="660.0" y="944.0"/>
      <point x="664.0" y="906.0" type="curve" smooth="yes"/>
      <point x="672.0" y="840.0"/>
      <point x="602.0" y="750.0"/>
    </contour>
  </outline>
</glyph>
<glyph name="l" format="2">
  <advance width="586"/>
  <unicode hex="006C"/>
  <outline>
    <contour>
      <point x="810.0" y="1416.0" type="curve" smooth="yes"/>
      <point x="688.0" y="1416.0"/>
      <point x="530.0" y="1278.0"/>
      <point x="398.0" y="842.0" type="curve" smooth="yes"/>
      <point x="284.0" y="442.0" type="line" smooth="yes"/>
      <point x="238.0" y="288.0"/>
      <point x="194.0" y="198.0"/>
      <point x="194.0" y="70.0" type="curve" smooth="yes"/>
      <point x="194.0" y="8.0"/>
      <point x="226.0" y="-34.0"/>
      <point x="290.0" y="-34.0" type="curve" smooth="yes"/>
      <point x="440.0" y="-34.0"/>
      <point x="550.0" y="80.0"/>
      <point x="550.0" y="168.0" type="curve" smooth="yes"/>
      <point x="550.0" y="170.0"/>
      <point x="544.0" y="174.0"/>
      <point x="534.0" y="174.0" type="curve" smooth="yes"/>
      <point x="512.0" y="174.0"/>
      <point x="500.0" y="160.0"/>
      <point x="478.0" y="136.0" type="curve" smooth="yes"/>
      <point x="464.0" y="134.0"/>
      <point x="424.0" y="84.0"/>
      <point x="348.0" y="84.0" type="curve" smooth="yes"/>
      <point x="320.0" y="84.0"/>
      <point x="290.0" y="108.0"/>
      <point x="290.0" y="156.0" type="curve" smooth="yes"/>
      <point x="290.0" y="246.0"/>
      <point x="306.0" y="298.0"/>
      <point x="322.0" y="350.0" type="curve" smooth="yes"/>
      <point x="594.0" y="1224.0" type="line" smooth="yes"/>
      <point x="594.0" y="1226.0"/>
      <point x="662.0" y="1256.0"/>
      <point x="662.0" y="1248.0" type="curve" smooth="yes"/>
      <point x="662.0" y="1286.0"/>
      <point x="684.0" y="1314.0"/>
      <point x="708.0" y="1314.0" type="curve" smooth="yes"/>
      <point x="752.0" y="1314.0"/>
      <point x="778.0" y="1242.0"/>
      <point x="868.0" y="1242.0" type="curve" smooth="yes"/>
      <point x="924.0" y="1242.0"/>
      <point x="946.0" y="1282.0"/>
      <point x="946.0" y="1328.0" type="curve" smooth="yes"/>
      <point x="946.0" y="1374.0"/>
      <point x="902.0" y="1416.0"/>
    </contour>
  </outline>
</glyph>
<glyph name="o" format="2">
  <advance width="906"/>
  <unicode hex="006F"/>
  <outline>
    <contour>
      <point x="584.0" y="914.0" type="curve" smooth="yes"/>
      <point x="348.0" y="914.0"/>
      <point x="94.0" y="626.0"/>
      <point x="94.0" y="276.0" type="curve" smooth="yes"/>
      <point x="94.0" y="84.0"/>
      <point x="198.0" y="-16.0"/>
      <point x="332.0" y="-16.0" type="curve" smooth="yes"/>
      <point x="550.0" y="-16.0"/>
      <point x="812.0" y="242.0"/>
      <point x="812.0" y="608.0" type="curve" smooth="yes"/>
      <point x="812.0" y="814.0"/>
      <point x="734.0" y="914.0"/>
    </contour>
    <contour>
      <point x="352.0" y="42.0" type="curve" smooth="yes"/>
      <point x="244.0" y="42.0"/>
      <point x="170.0" y="110.0"/>
      <point x="170.0" y="246.0" type="curve" smooth="yes"/>
      <point x="170.0" y="588.0"/>
      <point x="382.0" y="856.0"/>
      <point x="564.0" y="856.0" type="curve" smooth="yes"/>
      <point x="670.0" y="856.0"/>
      <point x="736.0" y="784.0"/>
      <point x="736.0" y="614.0" type="curve" smooth="yes"/>
      <point x="736.0" y="284.0"/>
      <point x="512.0" y="42.0"/>
    </contour>
  </outline>
</glyph>
<glyph name="p" format="2">
  <advance width="1048"/>
  <unicode hex="0070"/>
  <outline>
    <contour>
      <point x="714.0" y="1094.0" type="line" smooth="yes"/>
      <point x="712.0" y="1080.0"/>
      <point x="716.0" y="1102.0"/>
      <point x="716.0" y="1124.0" type="curve" smooth="yes"/>
      <point x="716.0" y="1174.0"/>
      <point x="700.0" y="1202.0"/>
      <point x="656.0" y="1202.0" type="curve" smooth="yes"/>
      <point x="664.0" y="1202.0"/>
      <point x="660.0" y="1190.0"/>
      <point x="668.0" y="1222.0" type="curve" smooth="yes"/>
      <point x="176.0" y="-260.0" type="line" smooth="yes"/>
      <point x="162.0" y="-294.0"/>
      <point x="142.0" y="-320.0"/>
      <point x="104.0" y="-352.0" type="curve" smooth="yes"/>
      <point x="52.0" y="-380.0"/>
      <point x="32.0" y="-400.0"/>
      <point x="32.0" y="-422.0" type="curve" smooth="yes"/>
      <point x="32.0" y="-452.0"/>
      <point x="64.0" y="-472.0"/>
      <point x="104.0" y="-468.0" type="curve" smooth="yes"/>
      <point x="330.0" y="-462.0" type="line" smooth="yes"/>
      <point x="374.0" y="-458.0"/>
      <point x="406.0" y="-442.0"/>
      <point x="406.0" y="-418.0" type="curve" smooth="yes"/>
      <point x="406.0" y="-394.0"/>
      <point x="378.0" y="-382.0"/>
      <point x="326.0" y="-360.0" type="curve" smooth="yes"/>
      <point x="296.0" y="-334.0"/>
      <point x="282.0" y="-314.0"/>
      <point x="282.0" y="-278.0" type="curve" smooth="yes"/>
      <point x="282.0" y="-240.0"/>
      <point x="296.0" y="-190.0"/>
      <point x="312.0" y="-144.0" type="curve" smooth="yes"/>
    </contour>
    <contour>
      <point x="284.0" y="660.0" type="curve" smooth="yes"/>
      <point x="288.0" y="660.0"/>
      <point x="292.0" y="672.0"/>
      <point x="296.0" y="678.0" type="curve" smooth="yes"/>
      <point x="412.0" y="792.0"/>
      <point x="628.0" y="916.0"/>
      <point x="770.0" y="916.0" type="curve" smooth="yes"/>
      <point x="930.0" y="916.0"/>
      <point x="962.0" y="842.0"/>
      <point x="962.0" y="696.0" type="curve" smooth="yes"/>
      <point x="962.0" y="294.0"/>
      <point x="676.0" y="12.0"/>
      <point x="528.0" y="12.0" type="curve" smooth="yes"/>
      <point x="428.0" y="12.0"/>
      <point x="368.0" y="74.0"/>
      <point x="370.0" y="58.0" type="curve"/>
      <point x="376.0" y="54.0" type="line"/>
      <point x="422.0" y="-24.0"/>
      <point x="454.0" y="-32.0"/>
      <point x="560.0" y="-32.0" type="curve" smooth="yes"/>
      <point x="738.0" y="-32.0"/>
      <point x="1072.0" y="216.0"/>
      <point x="1072.0" y="686.0" type="curve" smooth="yes"/>
      <point x="1072.0" y="874.0"/>
      <point x="996.0" y="972.0"/>
      <point x="768.0" y="972.0" type="curve" smooth="yes"/>
      <point x="556.0" y="972.0"/>
      <point x="376.0" y="856.0"/>
      <point x="280.0" y="740.0" type="curve" smooth="yes"/>
      <point x="268.0" y="728.0"/>
      <point x="246.0" y="706.0"/>
      <point x="246.0" y="680.0" type="curve" smooth="yes"/>
      <point x="246.0" y="668.0"/>
      <point x="262.0" y="660.0"/>
    </contour>
  </outline>
</glyph>
<glyph name="s" format="2">
  <advance width="746"/>
  <unicode hex="0073"/>
  <outline>
    <contour>
      <point x="344.0" y="32.0" type="curve" smooth="yes"/>
      <point x="276.0" y="32.0"/>
      <point x="202.0" y="68.0"/>
      <point x="156.0" y="144.0" type="curve" smooth="yes"/>
      <point x="130.0" y="186.0"/>
      <point x="114.0" y="192.0"/>
      <point x="92.0" y="192.0" type="curve" smooth="yes"/>
      <point x="74.0" y="192.0"/>
      <point x="60.0" y="176.0"/>
      <point x="60.0" y="150.0" type="curve" smooth="yes"/>
      <point x="60.0" y="56.0"/>
      <point x="166.0" y="-16.0"/>
      <point x="290.0" y="-16.0" type="curve" smooth="yes"/>
      <point x="462.0" y="-16.0"/>
      <point x="570.0" y="74.0"/>
      <point x="570.0" y="204.0" type="curve" smooth="yes"/>
      <point x="570.0" y="278.0"/>
      <point x="538.0" y="342.0"/>
      <point x="402.0" y="460.0" type="curve" smooth="yes"/>
      <point x="312.0" y="538.0"/>
      <point x="264.0" y="606.0"/>
      <point x="264.0" y="688.0" type="curve" smooth="yes"/>
      <point x="264.0" y="790.0"/>
      <point x="352.0" y="868.0"/>
      <point x="468.0" y="868.0" type="curve" smooth="yes"/>
      <point x="548.0" y="868.0"/>
      <point x="588.0" y="818.0"/>
      <point x="620.0" y="768.0" type="curve" smooth="yes"/>
      <point x="642.0" y="730.0"/>
      <point x="662.0" y="718.0"/>
      <point x="684.0" y="718.0" type="curve" smooth="yes"/>
      <point x="708.0" y="718.0"/>
      <point x="722.0" y="732.0"/>
      <point x="722.0" y="762.0" type="curve" smooth="yes"/>
      <point x="722.0" y="832.0"/>
      <point x="650.0" y="914.0"/>
      <point x="508.0" y="914.0" type="curve" smooth="yes"/>
      <point x="318.0" y="914.0"/>
      <point x="194.0" y="792.0"/>
      <point x="194.0" y="656.0" type="curve" smooth="yes"/>
      <point x="194.0" y="574.0"/>
      <point x="226.0" y="502.0"/>
      <point x="352.0" y="390.0" type="curve" smooth="yes"/>
      <point x="466.0" y="290.0"/>
      <point x="494.0" y="244.0"/>
      <point x="494.0" y="178.0" type="curve" smooth="yes"/>
      <point x="494.0" y="84.0"/>
      <point x="426.0" y="32.0"/>
    </contour>
  </outline>
</glyph>
<glyph name="v" format="2">
  <advance width="910"/>
  <unicode hex="0076"/>
  <outline>
    <contour>
      <point x="866.0" y="766.0" type="curve" smooth="yes"/>
      <point x="866.0" y="872.0"/>
      <point x="824.0" y="914.0"/>
      <point x="772.0" y="914.0" type="curve" smooth="yes"/>
      <point x="740.0" y="914.0"/>
      <point x="714.0" y="888.0"/>
      <point x="714.0" y="864.0" type="curve" smooth="yes"/>
      <point x="714.0" y="836.0"/>
      <point x="726.0" y="814.0"/>
      <point x="758.0" y="790.0" type="curve" smooth="yes"/>
      <point x="790.0" y="764.0"/>
      <point x="802.0" y="736.0"/>
      <point x="802.0" y="670.0" type="curve" smooth="yes"/>
      <point x="802.0" y="360.0"/>
      <point x="576.0" y="60.0"/>
      <point x="390.0" y="60.0" type="curve" smooth="yes"/>
      <point x="316.0" y="60.0"/>
      <point x="278.0" y="118.0"/>
      <point x="278.0" y="226.0" type="curve" smooth="yes"/>
      <point x="278.0" y="412.0"/>
      <point x="344.0" y="586.0"/>
      <point x="534.0" y="858.0" type="curve" smooth="yes"/>
      <point x="546.0" y="876.0"/>
      <point x="556.0" y="894.0"/>
      <point x="556.0" y="906.0" type="curve" smooth="yes"/>
      <point x="556.0" y="918.0"/>
      <point x="552.0" y="926.0"/>
      <point x="540.0" y="926.0" type="curve" smooth="yes"/>
      <point x="508.0" y="926.0"/>
      <point x="488.0" y="890.0"/>
      <point x="450.0" y="890.0" type="curve" smooth="yes"/>
      <point x="398.0" y="890.0"/>
      <point x="292.0" y="902.0"/>
      <point x="246.0" y="902.0" type="curve" smooth="yes"/>
      <point x="132.0" y="902.0"/>
      <point x="62.0" y="804.0"/>
      <point x="62.0" y="696.0" type="curve" smooth="yes"/>
      <point x="62.0" y="638.0"/>
      <point x="92.0" y="612.0"/>
      <point x="128.0" y="612.0" type="curve" smooth="yes"/>
      <point x="158.0" y="612.0"/>
      <point x="184.0" y="632.0"/>
      <point x="184.0" y="660.0" type="curve" smooth="yes"/>
      <point x="184.0" y="680.0"/>
      <point x="178.0" y="692.0"/>
      <point x="162.0" y="710.0" type="curve" smooth="yes"/>
      <point x="138.0" y="730.0"/>
      <point x="132.0" y="748.0"/>
      <point x="132.0" y="778.0" type="curve" smooth="yes"/>
      <point x="132.0" y="814.0"/>
      <point x="158.0" y="840.0"/>
      <point x="210.0" y="840.0" type="curve" smooth="yes"/>
      <point x="276.0" y="840.0"/>
      <point x="420.0" y="812.0"/>
      <point x="478.0" y="812.0" type="curve"/>
      <point x="512.0" y="884.0" type="line"/>
      <point x="474.0" y="848.0"/>
      <point x="432.0" y="792.0"/>
      <point x="384.0" y="708.0" type="curve" smooth="yes"/>
      <point x="254.0" y="486.0"/>
      <point x="200.0" y="314.0"/>
      <point x="200.0" y="184.0" type="curve" smooth="yes"/>
      <point x="200.0" y="56.0"/>
      <point x="252.0" y="-16.0"/>
      <point x="344.0" y="-16.0" type="curve" smooth="yes"/>
      <point x="590.0" y="-16.0"/>
      <point x="866.0" y="346.0"/>
    </contour>
  </outline>
</glyph>
<glyph name="w" format="2">
  <advance width="1456"/>
  <unicode hex="0077"/>
  <outline>
    <contour>
      <point x="1032.0" y="972.0" type="curve" smooth="yes"/>
      <point x="986.0" y="972.0"/>
      <point x="942.0" y="908.0"/>
      <point x="908.0" y="796.0" type="curve" smooth="yes"/>
      <point x="876.0" y="686.0"/>
      <point x="860.0" y="524.0"/>
      <point x="860.0" y="260.0" type="curve" smooth="yes"/>
      <point x="860.0" y="80.0"/>
      <point x="922.0" y="-34.0"/>
      <point x="1034.0" y="-34.0" type="curve" smooth="yes"/>
      <point x="1292.0" y="-34.0"/>
      <point x="1508.0" y="342.0"/>
      <point x="1508.0" y="800.0" type="curve" smooth="yes"/>
      <point x="1508.0" y="928.0"/>
      <point x="1458.0" y="974.0"/>
      <point x="1388.0" y="974.0" type="curve" smooth="yes"/>
      <point x="1344.0" y="974.0"/>
      <point x="1304.0" y="940.0"/>
      <point x="1304.0" y="900.0" type="curve" smooth="yes"/>
      <point x="1304.0" y="844.0"/>
      <point x="1320.0" y="826.0"/>
      <point x="1370.0" y="756.0" type="curve" smooth="yes"/>
      <point x="1392.0" y="718.0"/>
      <point x="1422.0" y="656.0"/>
      <point x="1422.0" y="606.0" type="curve" smooth="yes"/>
      <point x="1422.0" y="350.0"/>
      <point x="1234.0" y="116.0"/>
      <point x="1112.0" y="116.0" type="curve" smooth="yes"/>
      <point x="1006.0" y="116.0"/>
      <point x="940.0" y="202.0"/>
      <point x="934.0" y="342.0" type="curve"/>
      <point x="872.0" y="206.0"/>
      <point x="734.0" y="128.0"/>
      <point x="626.0" y="128.0" type="curve" smooth="yes"/>
      <point x="534.0" y="128.0"/>
      <point x="486.0" y="174.0"/>
      <point x="486.0" y="268.0" type="curve"/>
      <point x="486.0" y="406.0"/>
      <point x="524.0" y="528.0"/>
      <point x="708.0" y="870.0" type="curve" smooth="yes"/>
      <point x="736.0" y="932.0"/>
      <point x="780.0" y="932.0"/>
      <point x="780.0" y="956.0" type="curve" smooth="yes"/>
      <point x="780.0" y="966.0"/>
      <point x="780.0" y="972.0"/>
      <point x="774.0" y="972.0" type="curve" smooth="yes"/>
      <point x="738.0" y="972.0"/>
      <point x="716.0" y="934.0"/>
      <point x="672.0" y="934.0" type="curve" smooth="yes"/>
      <point x="608.0" y="934.0"/>
      <point x="486.0" y="936.0"/>
      <point x="444.0" y="936.0" type="curve" smooth="yes"/>
      <point x="334.0" y="936.0"/>
      <point x="264.0" y="828.0"/>
      <point x="264.0" y="714.0" type="curve" smooth="yes"/>
      <point x="264.0" y="666.0"/>
      <point x="282.0" y="642.0"/>
      <point x="312.0" y="642.0" type="curve" smooth="yes"/>
      <point x="332.0" y="642.0"/>
      <point x="370.0" y="664.0"/>
      <point x="370.0" y="710.0" type="curve" smooth="yes"/>
      <point x="370.0" y="722.0"/>
      <point x="366.0" y="746.0"/>
      <point x="336.0" y="764.0" type="curve" smooth="yes"/>
      <point x="322.0" y="772.0"/>
      <point x="320.0" y="786.0"/>
      <point x="320.0" y="798.0" type="curve" smooth="yes"/>
      <point x="320.0" y="816.0"/>
      <point x="338.0" y="832.0"/>
      <point x="382.0" y="832.0" type="curve" smooth="yes"/>
      <point x="466.0" y="832.0"/>
      <point x="614.0" y="812.0"/>
      <point x="716.0" y="812.0" type="curve" smooth="yes"/>
      <point x="792.0" y="812.0"/>
      <point x="764.0" y="876.0"/>
      <point x="736.0" y="878.0" type="curve"/>
      <point x="736.0" y="896.0"/>
      <point x="730.0" y="908.0"/>
      <point x="620.0" y="742.0" type="curve" smooth="yes"/>
      <point x="462.0" y="480.0"/>
      <point x="400.0" y="298.0"/>
      <point x="400.0" y="198.0" type="curve"/>
      <point x="400.0" y="58.0"/>
      <point x="448.0" y="-34.0"/>
      <point x="524.0" y="-34.0" type="curve" smooth="yes"/>
      <point x="774.0" y="-34.0"/>
      <point x="990.0" y="266.0"/>
      <point x="1040.0" y="536.0" type="curve" smooth="yes"/>
      <point x="1062.0" y="644.0"/>
      <point x="1074.0" y="760.0"/>
      <point x="1074.0" y="888.0" type="curve" smooth="yes"/>
      <point x="1074.0" y="944.0"/>
      <point x="1056.0" y="972.0"/>
    </contour>
  </outline>
</glyph>
<glyph name="dotaccent" format="2">
  <advance width="428"/>
  <unicode hex="02D9"/>
  <outline>
    <contour>
      <point x="176.0" y="1170.0" type="curve" smooth="yes"/>
      <point x="216.0" y="1170.0"/>
      <point x="302.0" y="1296.0"/>
      <point x="302.0" y="1396.0" type="curve" smooth="yes"/>
      <point x="302.0" y="1426.0"/>
      <point x="290.0" y="1442.0"/>
      <point x="270.0" y="1442.0" type="curve" smooth="yes"/>
      <point x="228.0" y="1442.0"/>
      <point x="144.0" y="1318.0"/>
      <point x="144.0" y="1220.0" type="curve" smooth="yes"/>
      <point x="144.0" y="1188.0"/>
      <point x="158.0" y="1170.0"/>
    </contour>
  </outline>
</glyph>
<glyph name="b.alt" format="2">
  <advance width="950"/>
  <outline>
    <contour>
      <point x="688.0" y="860.0" type="curve" smooth="yes"/>
      <point x="758.0" y="860.0"/>
      <point x="800.0" y="804.0"/>
      <point x="800.0" y="702.0" type="curve" smooth="yes"/>
      <point x="800.0" y="330.0"/>
      <point x="528.0" y="40.0"/>
      <point x="344.0" y="40.0" type="curve" smooth="yes"/>
      <point x="262.0" y="40.0"/>
      <point x="212.0" y="84.0"/>
      <point x="212.0" y="188.0" type="curve" smooth="yes"/>
      <point x="212.0" y="480.0"/>
      <point x="496.0" y="860.0"/>
    </contour>
    <contour>
      <point x="380.0" y="1152.0" type="curve" smooth="yes"/>
      <point x="92.0" y="78.0" type="line" smooth="yes"/>
      <point x="82.0" y="44.0"/>
      <point x="80.0" y="30.0"/>
      <point x="80.0" y="16.0" type="curve" smooth="yes"/>
      <point x="80.0" y="0.0"/>
      <point x="90.0" y="-12.0"/>
      <point x="104.0" y="-12.0" type="curve" smooth="yes"/>
      <point x="114.0" y="-12.0"/>
      <point x="130.0" y="0.0"/>
      <point x="136.0" y="14.0" type="curve" smooth="yes"/>
      <point x="190.0" y="172.0" type="line"/>
      <point x="176.0" y="186.0" type="line"/>
      <point x="176.0" y="54.0"/>
      <point x="216.0" y="-16.0"/>
      <point x="334.0" y="-16.0" type="curve" smooth="yes"/>
      <point x="556.0" y="-16.0"/>
      <point x="878.0" y="300.0"/>
      <point x="878.0" y="736.0" type="curve" smooth="yes"/>
      <point x="878.0" y="848.0"/>
      <point x="820.0" y="916.0"/>
      <point x="716.0" y="916.0" type="curve" smooth="yes"/>
      <point x="540.0" y="916.0"/>
      <point x="328.0" y="688.0"/>
      <point x="238.0" y="450.0" type="curve"/>
      <point x="256.0" y="450.0" type="line"/>
      <point x="434.0" y="1150.0" type="line" smooth="yes"/>
      <point x="454.0" y="1226.0"/>
      <point x="468.0" y="1266.0"/>
      <point x="468.0" y="1322.0" type="curve" smooth="yes"/>
      <point x="468.0" y="1374.0"/>
      <point x="440.0" y="1416.0"/>
      <point x="398.0" y="1416.0" type="curve" smooth="yes"/>
      <point x="276.0" y="1416.0"/>
      <point x="164.0" y="1316.0"/>
      <point x="164.0" y="1276.0" type="curve" smooth="yes"/>
      <point x="164.0" y="1258.0"/>
      <point x="174.0" y="1254.0"/>
      <point x="186.0" y="1254.0" type="curve" smooth="yes"/>
      <point x="202.0" y="1254.0"/>
      <point x="222.0" y="1282.0"/>
      <point x="242.0" y="1302.0" type="curve" smooth="yes"/>
      <point x="268.0" y="1328.0"/>
      <point x="294.0" y="1336.0"/>
      <point x="330.0" y="1336.0" type="curve" smooth="yes"/>
      <point x="366.0" y="1336.0"/>
      <point x="396.0" y="1316.0"/>
      <point x="396.0" y="1272.0" type="curve" smooth="yes"/>
      <point x="396.0" y="1226.0"/>
      <point x="392.0" y="1198.0"/>
    </contour>
  </outline>
</glyph>
<glyph name="h.alt" format="2">
  <advance width="996"/>
  <outline>
    <contour>
      <point x="460.0" y="1150.0" type="curve" smooth="yes"/>
      <point x="334.0" y="728.0"/>
      <point x="282.3581119022293" y="545.4324476089173"/>
      <point x="256.0" y="440.0" type="curve"/>
      <point x="228.0" y="442.0" type="line"/>
      <point x="364.0" y="750.0"/>
      <point x="578.0" y="922.0"/>
      <point x="750.0" y="922.0" type="curve" smooth="yes"/>
      <point x="820.0" y="922.0"/>
      <point x="858.0" y="884.0"/>
      <point x="858.0" y="826.0" type="curve" smooth="yes"/>
      <point x="858.0" y="766.0"/>
      <point x="844.0" y="720.0"/>
      <point x="812.0" y="624.0" type="curve" smooth="yes"/>
      <point x="670.0" y="222.0" type="line" smooth="yes"/>
      <point x="660.0" y="188.0"/>
      <point x="652.0" y="150.0"/>
      <point x="652.0" y="124.0" type="curve" smooth="yes"/>
      <point x="652.0" y="84.0"/>
      <point x="676.0" y="62.0"/>
      <point x="708.0" y="62.0" type="curve" smooth="yes"/>
      <point x="742.0" y="62.0"/>
      <point x="768.0" y="76.0"/>
      <point x="808.0" y="112.0" type="curve" smooth="yes"/>
      <point x="828.0" y="136.0"/>
      <point x="842.0" y="150.0"/>
      <point x="858.0" y="150.0" type="curve" smooth="yes"/>
      <point x="868.0" y="150.0"/>
      <point x="876.0" y="142.0"/>
      <point x="876.0" y="134.0" type="curve" smooth="yes"/>
      <point x="876.0" y="74.0"/>
      <point x="774.0" y="-22.0"/>
      <point x="652.0" y="-22.0" type="curve" smooth="yes"/>
      <point x="594.0" y="-22.0"/>
      <point x="564.0" y="14.0"/>
      <point x="564.0" y="72.0" type="curve" smooth="yes"/>
      <point x="564.0" y="102.0"/>
      <point x="572.0" y="134.0"/>
      <point x="596.0" y="198.0" type="curve" smooth="yes"/>
      <point x="758.0" y="646.0" type="line" smooth="yes"/>
      <point x="774.0" y="686.0"/>
      <point x="780.0" y="724.0"/>
      <point x="780.0" y="760.0" type="curve" smooth="yes"/>
      <point x="780.0" y="818.0"/>
      <point x="760.0" y="856.0"/>
      <point x="694.0" y="856.0" type="curve" smooth="yes"/>
      <point x="598.0" y="856.0"/>
      <point x="380.0" y="728.0"/>
      <point x="248.0" y="368.0" type="curve" smooth="yes"/>
      <point x="202.0" y="244.0"/>
      <point x="174.0" y="172.0"/>
      <point x="174.0" y="122.0" type="curve" smooth="yes"/>
      <point x="174.0" y="78.0"/>
      <point x="186.0" y="64.0"/>
      <point x="186.0" y="36.0" type="curve" smooth="yes"/>
      <point x="186.0" y="0.0"/>
      <point x="150.0" y="-22.0"/>
      <point x="114.0" y="-22.0" type="curve" smooth="yes"/>
      <point x="88.0" y="-22.0"/>
      <point x="72.0" y="-12.0"/>
      <point x="72.0" y="16.0" type="curve" smooth="yes"/>
      <point x="72.0" y="38.0"/>
      <point x="76.0" y="64.0"/>
      <point x="102.0" y="148.0" type="curve" smooth="yes"/>
      <point x="402.0" y="1152.0" type="line" smooth="yes"/>
      <point x="416.0" y="1198.0"/>
      <point x="418.0" y="1226.0"/>
      <point x="418.0" y="1272.0" type="curve" smooth="yes"/>
      <point x="418.0" y="1316.0"/>
      <point x="388.0" y="1340.0"/>
      <point x="352.0" y="1340.0" type="curve" smooth="yes"/>
      <point x="316.0" y="1340.0"/>
      <point x="292.0" y="1328.0"/>
      <point x="264.0" y="1302.0" type="curve" smooth="yes"/>
      <point x="244.0" y="1280.0"/>
      <point x="226.0" y="1252.0"/>
      <point x="204.0" y="1252.0" type="curve" smooth="yes"/>
      <point x="192.0" y="1252.0"/>
      <point x="184.0" y="1258.0"/>
      <point x="184.0" y="1276.0" type="curve" smooth="yes"/>
      <point x="184.0" y="1316.0"/>
      <point x="300.0" y="1420.0"/>
      <point x="420.0" y="1420.0" type="curve" smooth="yes"/>
      <point x="466.0" y="1420.0"/>
      <point x="494.0" y="1378.0"/>
      <point x="494.0" y="1322.0" type="curve" smooth="yes"/>
      <point x="494.0" y="1266.0"/>
      <point x="484.0" y="1226.0"/>
    </contour>
  </outline>
</glyph>
<glyph name="jdotless" format="2">
  <advance width="618"/>
  <outline>
    <contour>
      <point x="572.0" y="670.0" type="curve" smooth="yes"/>
      <point x="406.0" y="-102.0" type="line" smooth="yes"/>
      <point x="358.0" y="-344.0"/>
      <point x="208.0" y="-476.0"/>
      <point x="50.0" y="-476.0" type="curve" smooth="yes"/>
      <point x="12.0" y="-476.0"/>
      <point x="-10.0" y="-436.0"/>
      <point x="-10.0" y="-396.0" type="curve" smooth="yes"/>
      <point x="-10.0" y="-324.0"/>
      <point x="32.0" y="-258.0"/>
      <point x="104.0" y="-258.0" type="curve" smooth="yes"/>
      <point x="146.0" y="-258.0"/>
      <point x="176.0" y="-354.0"/>
      <point x="214.0" y="-354.0" type="curve" smooth="yes"/>
      <point x="216.0" y="-354.0"/>
      <point x="222.0" y="-340.0"/>
      <point x="222.0" y="-312.0" type="curve" smooth="yes"/>
      <point x="222.0" y="-282.0"/>
      <point x="282.0" y="-172.0"/>
      <point x="272.0" y="-192.0" type="curve" smooth="yes"/>
      <point x="490.0" y="714.0" type="line" smooth="yes"/>
      <point x="494.0" y="750.0"/>
      <point x="504.0" y="774.0"/>
      <point x="500.0" y="804.0" type="curve" smooth="yes"/>
      <point x="500.0" y="820.0"/>
      <point x="488.0" y="826.0"/>
      <point x="460.0" y="826.0" type="curve" smooth="yes"/>
      <point x="428.0" y="826.0"/>
      <point x="416.0" y="812.0"/>
      <point x="386.0" y="794.0" type="curve" smooth="yes"/>
      <point x="354.0" y="758.0"/>
      <point x="334.0" y="730.0"/>
      <point x="312.0" y="730.0" type="curve" smooth="yes"/>
      <point x="288.0" y="730.0"/>
      <point x="266.0" y="740.0"/>
      <point x="264.0" y="766.0" type="curve" smooth="yes"/>
      <point x="262.0" y="810.0"/>
      <point x="456.0" y="972.0"/>
      <point x="558.0" y="972.0" type="curve" smooth="yes"/>
      <point x="616.0" y="972.0"/>
      <point x="644.0" y="944.0"/>
      <point x="648.0" y="906.0" type="curve" smooth="yes"/>
      <point x="656.0" y="840.0"/>
      <point x="586.0" y="750.0"/>
    </contour>
  </outline>
</glyph>
